<svg id="Layer_1" data-name="Layer 1" xmlns="http://www.w3.org/2000/svg" viewBox="0 0 289 253"><defs><style>.cls-1{fill:red;stroke:#000;stroke-miterlimit:10;}.cls-2{font-size:42px;font-family:Stop;}.cls-3{font-size:18px;font-family:HelveticaNeue-Medium, Helvetica Neue;font-weight:500;}</style></defs><rect class="cls-1" x="0.5" y="0.5" width="288" height="252"/><text class="cls-2" transform="translate(39.39 138.07)">centurIon</text><text class="cls-3" transform="translate(52.8 52.74)">TO BE REPLACED BY<tspan x="72.03" y="21.6">OUR</tspan></text><text class="cls-3" transform="translate(122.16 170.75)">COIN<tspan x="-31.01" y="21.6">TELEPHONE</tspan></text><path d="M162.77,224.35c-.08.13,0,.27-.05.41a2.73,2.73,0,0,1-.06.5.69.69,0,0,0,0,.2c0,.21-.07.4-.07.61a5.58,5.58,0,0,1-.13.69c0,.13,0,.27-.06.4a1.71,1.71,0,0,1-.13.44.83.83,0,0,0,0,.22,2.45,2.45,0,0,1-.08.37c0,.18-.12.34-.15.52a5.15,5.15,0,0,1-.24.76,2.79,2.79,0,0,1-.24.6,1.24,1.24,0,0,0-.1.29c0,.1-.08.2-.11.3a3.82,3.82,0,0,1-.31.68,1.49,1.49,0,0,1-.23.43,2.23,2.23,0,0,0-.15.31c-.12.2-.23.41-.34.62a4.78,4.78,0,0,0-.26.42c-.07.15-.22.24-.26.39s-.22.26-.28.43a1.7,1.7,0,0,1-.31.41c-.07.09-.13.21-.2.31a2.19,2.19,0,0,1-.21.23c-.2.2-.3.48-.53.67s-.56.6-.85.88a7.43,7.43,0,0,1-.59.53c-.05,0,0,.11-.1.15a1.52,1.52,0,0,0-.28.19c-.1.1-.23.17-.32.28s-.19.14-.27.26-.2.12-.3.2a8.69,8.69,0,0,1-.76.55,2.69,2.69,0,0,1-.44.31c-.13.08-.26.17-.4.24s-.48.3-.73.41a5,5,0,0,0-.52.26,4,4,0,0,0-.51.24c-.14.08-.28.12-.42.19s-.43.18-.64.29-.12,0-.18,0a4.13,4.13,0,0,1-.45.17,6,6,0,0,1-.72.22,1.17,1.17,0,0,0-.4.13,2.33,2.33,0,0,1-.44.1,1.68,1.68,0,0,0-.38.12.68.68,0,0,1-.15,0c-.33,0-.66.11-1,.18s-.36,0-.54.06-.39,0-.58.08a.57.57,0,0,1-.29,0c-.13,0-.24,0-.35,0a.61.61,0,0,0-.3,0,1.2,1.2,0,0,1-.38,0c-.15,0-.3,0-.46,0a5.8,5.8,0,0,1-.59,0,3.25,3.25,0,0,1-.7-.05c-.1,0-.21,0-.32,0-.35-.06-.7-.1-1.05-.13s-.56-.11-.83-.15a.92.92,0,0,0-.44,0s-.09-.07-.14-.08l-.5-.12-.48-.15-.36-.07c-.07,0-.12-.07-.19-.09a5.08,5.08,0,0,1-.51-.17,3,3,0,0,0-.32-.09c-.11,0-.21-.11-.33-.14a3,3,0,0,1-.36-.14,3.88,3.88,0,0,1-.46-.22.51.51,0,0,0-.3-.12s0,0,0,0-.2-.12-.3-.18a4.23,4.23,0,0,0-.42-.22c-.27-.13-.51-.3-.77-.43a2.94,2.94,0,0,1-.47-.31,2.07,2.07,0,0,1-.25-.15,5.61,5.61,0,0,1-.62-.47.41.41,0,0,0-.15-.07,2.44,2.44,0,0,1-.46-.39,3,3,0,0,1-.29-.2,8.22,8.22,0,0,1-.69-.62,3.73,3.73,0,0,1-.43-.36c-.17-.22-.41-.38-.58-.6a4.8,4.8,0,0,0-.51-.59c-.08-.08-.17-.21-.25-.28s-.31-.46-.52-.65a.55.55,0,0,1-.19-.27c0-.12-.17-.19-.21-.31s-.28-.34-.36-.53-.2-.29-.28-.45a2.09,2.09,0,0,0-.3-.47s0,0,0-.06a.47.47,0,0,0-.13-.25c-.09-.1-.11-.26-.19-.37s-.19-.4-.3-.59a.62.62,0,0,1-.14-.28.91.91,0,0,0-.14-.34,3.24,3.24,0,0,1-.13-.41s0,0,0,0c-.16-.16-.15-.38-.23-.57a4,4,0,0,1-.22-.61c0-.13-.15-.25-.11-.43s-.08-.25-.11-.38,0-.35-.08-.52-.06-.23-.1-.34,0-.36-.08-.54a4.69,4.69,0,0,1-.17-1.06,5.41,5.41,0,0,0-.07-.58c0-.12,0-.26,0-.38a2.22,2.22,0,0,1,0-.37c0-.17,0-.34,0-.51a2.06,2.06,0,0,0,0-.43c0-.13,0-.26,0-.38,0-.31.06-.61.05-.92a5.51,5.51,0,0,1,.08-.71,2.87,2.87,0,0,1,0-.52c.07-.19,0-.41.14-.6a.36.36,0,0,0,0-.21,5.29,5.29,0,0,1,.17-.81,3.14,3.14,0,0,1,.12-.61c.09-.3.2-.6.28-.91s.18-.41.23-.64a5.32,5.32,0,0,1,.26-.61,1.9,1.9,0,0,0,.14-.4,2,2,0,0,1,.19-.36,5.36,5.36,0,0,1,.26-.54,2.09,2.09,0,0,1,.26-.46c.09-.09.11-.25.17-.37a1.22,1.22,0,0,1,.12-.19c.05-.06.14-.11.11-.21s0-.07.06-.09c.2-.26.36-.54.54-.8a3.06,3.06,0,0,1,.33-.47c.18-.2.33-.43.5-.64s.42-.46.6-.71.38-.4.56-.61a2.85,2.85,0,0,1,.63-.57,1,1,0,0,0,.16-.19,3.86,3.86,0,0,1,.38-.3c.08-.06.15-.14.23-.21a2.54,2.54,0,0,1,.5-.38.87.87,0,0,0,.17-.16,3.23,3.23,0,0,1,.43-.29c.2-.15.41-.31.62-.45s.4-.26.6-.36a4.66,4.66,0,0,1,.5-.25,1.9,1.9,0,0,0,.39-.23c.09-.06.18-.09.27-.14s.44-.19.65-.3a7.75,7.75,0,0,1,.78-.35,5.89,5.89,0,0,1,1-.32A1.69,1.69,0,0,0,139,206a1.25,1.25,0,0,1,.31-.07.51.51,0,0,0,.26-.1,2.11,2.11,0,0,1,.48-.12c.21,0,.41-.12.62-.16a4.36,4.36,0,0,0,.49-.06,3.87,3.87,0,0,1,.84-.13,5,5,0,0,0,.51-.09l.34,0c.8-.09,1.61-.05,2.42-.06a2.94,2.94,0,0,1,.51.05,2.68,2.68,0,0,0,.4,0l.81.1c.23,0,.46,0,.68.09a2.21,2.21,0,0,0,.37.08,3,3,0,0,1,.66.14,2.62,2.62,0,0,1,.71.21.56.56,0,0,0,.32.07.79.79,0,0,1,.35.11l.46.16.65.25.51.21a5.12,5.12,0,0,1,.75.35,1,1,0,0,0,.18.07c.16,0,.26.2.44.2s.08.06.12.1a.23.23,0,0,0,.19.09c.08,0,.1.09.15.11a1.7,1.7,0,0,1,.57.33c.14.09.3.17.44.27a3.26,3.26,0,0,0,.7.46c.1,0,.17.15.27.23l.05,0c.29.15.46.44.73.6a3.79,3.79,0,0,1,.7.62,7.71,7.71,0,0,1,.7.7c.12.16.3.29.43.44a3.66,3.66,0,0,1,.46.58.81.81,0,0,0,.24.25,1.21,1.21,0,0,1,.28.4c.08.11.2.17.26.3l.13.23a1.06,1.06,0,0,0,.16.21c.09.06.06.19.15.27a2.46,2.46,0,0,1,.37.54,1.67,1.67,0,0,1,.24.46,1.33,1.33,0,0,0,.21.41c.08.14.17.28.24.43l.34.69a1.31,1.31,0,0,1,.12.35c0,.09.09.16.11.25s.16.35.2.53a4,4,0,0,1,.2.58,1.82,1.82,0,0,0,.14.39c0,.14.07.29.12.43a2.74,2.74,0,0,1,.17.64,5.18,5.18,0,0,0,.14.53c0,.1,0,.21,0,.32a2.7,2.7,0,0,1,.12.63,2.51,2.51,0,0,0,.07.55c0,.15,0,.29.07.43a.39.39,0,0,1,0,.3c-.06.09,0,.13,0,.18l0,.43s0,.07,0,.09Zm-24.63-15.17a2,2,0,0,0-.3.14,4.27,4.27,0,0,0-.68.33,2.37,2.37,0,0,1-.47.25c-.11,0-.17.18-.22.18-.21,0-.31.18-.48.24a2.55,2.55,0,0,0-.46.32c-.08.07-.16.18-.26.21-.26.08-.4.3-.61.45a2.6,2.6,0,0,0-.33.25,5.86,5.86,0,0,0-.44.42,5.81,5.81,0,0,1-.43.43c-.24.23-.46.47-.68.72a4.68,4.68,0,0,0-.55.63c-.13.2-.3.37-.43.58a.54.54,0,0,1-.11.18c-.18.1-.2.3-.32.45a1.62,1.62,0,0,0-.27.44,2.67,2.67,0,0,1-.25.43,3.41,3.41,0,0,1-.17.33c-.16.23-.25.5-.39.75,0,.09-.07.2-.12.29s-.09.25-.15.36a1.06,1.06,0,0,0-.11.25,2.53,2.53,0,0,1-.12.33l-.23.69a4.28,4.28,0,0,0-.15.51,3.47,3.47,0,0,0-.13.46,5.45,5.45,0,0,1-.14.79c-.13.46-.11.93-.2,1.39s0,.77-.07,1.16a4.88,4.88,0,0,0,0,1.08c0,.24,0,.48.05.72a2.7,2.7,0,0,0,0,.28c0,.15.06.31.07.45a4.76,4.76,0,0,0,.09.66c.06.3.1.6.18.88a4.36,4.36,0,0,0,.26.87.57.57,0,0,1,.08.24c0,.21.16.35.17.56s.15.27.19.42a2.21,2.21,0,0,0,.18.42c.05.12.09.25.15.37s.19.37.28.55a1.31,1.31,0,0,1,.17.36c0,.13.15.18.18.3a1.33,1.33,0,0,0,.21.39c.25.35.46.72.73,1.06,0,0,.09.06.1.1a1.43,1.43,0,0,0,.32.44,6.89,6.89,0,0,1,.75.87.82.82,0,0,0,.25.27c.2.11.27.37.51.42,0,.15.15.19.23.25a8.93,8.93,0,0,0,.75.63c.19.13.34.3.53.41s.51.34.76.5a6,6,0,0,0,.54.33c.19.1.37.23.58.32a.82.82,0,0,1,.25.12,2.73,2.73,0,0,0,.45.23,2.87,2.87,0,0,1,.4.18c.15.12.35.13.52.23s.25,0,.37.13a1,1,0,0,0,.24.1l.57.16c.22.05.43.14.65.18s.28,0,.42.07a2.52,2.52,0,0,0,.67.16H142A7.83,7.83,0,0,0,143,239a3.66,3.66,0,0,1,1,.09h0c.42-.05.84,0,1.26-.05.12,0,.25,0,.38,0a2.33,2.33,0,0,0,.53,0l.55-.09.36-.06.34,0c.23,0,.43-.12.66-.15s.19,0,.25,0a2.54,2.54,0,0,1,.59-.19,3.86,3.86,0,0,0,.75-.24,6.62,6.62,0,0,1,.62-.24,4.72,4.72,0,0,1,.56-.24,4.45,4.45,0,0,0,.66-.32c.19-.1.38-.21.58-.3a4.31,4.31,0,0,0,.47-.26c.13-.07.24-.18.38-.25a4.19,4.19,0,0,1,.5-.31c.06,0,0-.11.11-.14a1.19,1.19,0,0,0,.46-.3,1,1,0,0,1,.28-.25,2.42,2.42,0,0,0,.56-.44c.07-.06.17-.11.2-.19s.2-.2.29-.31a1.85,1.85,0,0,1,.37-.31c.11-.08.15-.21.24-.31a5.18,5.18,0,0,0,.51-.54c.19-.27.42-.51.59-.79l.08-.12a5.22,5.22,0,0,0,.45-.6,2.19,2.19,0,0,1,.31-.48.09.09,0,0,0,0-.06,1.92,1.92,0,0,1,.25-.47c0-.07.14-.14.13-.2s.15-.22.15-.37.12-.19.17-.29c.11-.25.21-.51.31-.76l.23-.59c0-.12.08-.24.13-.36a1.52,1.52,0,0,0,.16-.45c0-.14.11-.26.1-.41s.06-.16.07-.24a6,6,0,0,1,.12-.61,6,6,0,0,0,.14-.74,4.18,4.18,0,0,1,.11-.68,3.31,3.31,0,0,0,.06-.64c0-.39,0-.79,0-1.18s0-.54,0-.81,0-.45,0-.67a.48.48,0,0,0,0-.18,2.83,2.83,0,0,0,0-.41,2.88,2.88,0,0,1-.1-.51,3.77,3.77,0,0,0-.17-.81,1.56,1.56,0,0,1-.08-.41,1.63,1.63,0,0,0-.09-.45c0-.11-.07-.23-.11-.34a5.08,5.08,0,0,1-.17-.51c0-.17-.14-.32-.19-.48a4.19,4.19,0,0,0-.2-.49,1,1,0,0,1-.14-.3,2.7,2.7,0,0,0-.25-.61,4.29,4.29,0,0,0-.31-.55,7,7,0,0,1-.36-.66c-.05-.13-.18-.21-.22-.35s-.16-.18-.24-.27-.16-.33-.3-.45a.4.4,0,0,1-.1-.15.81.81,0,0,0-.19-.29c-.17-.18-.35-.34-.5-.53s-.06-.12-.1-.16-.32-.35-.48-.52a8.84,8.84,0,0,1-.68-.69.51.51,0,0,0-.16-.13,1.1,1.1,0,0,1-.25-.17c-.12-.12-.26-.21-.37-.32a1.26,1.26,0,0,0-.27-.2c-.18-.13-.32-.32-.55-.38,0,0,0,0-.06,0a.92.92,0,0,0-.28-.24c-.17-.11-.35-.22-.54-.32l-.48-.28-.63-.32a3.68,3.68,0,0,1-.44-.23c-.1-.08-.24-.06-.33-.13a3,3,0,0,0-.62-.25c-.15-.07-.31-.12-.47-.18s-.48-.16-.73-.24a2.71,2.71,0,0,0-.41-.09,1.69,1.69,0,0,1-.42-.13c-.08,0-.15,0-.23,0s-.45-.12-.67-.16-.65-.06-1-.12-.57,0-.86-.06a3.13,3.13,0,0,0-.44,0c-.2,0-.41,0-.61,0s-.57.05-.85.05-.42,0-.62.06a5.41,5.41,0,0,1-.58.07,2.33,2.33,0,0,0-.53.07l-.53.13c-.07,0-.16,0-.21.05a.51.51,0,0,1-.3.1,3,3,0,0,0-.71.18c-.18.09-.4.1-.6.19s-.31.09-.45.17l-.05,0a2.17,2.17,0,0,0-.36.12C138.35,209.09,138.24,209.12,138.14,209.18Z"/><path d="M138,218.34a4.61,4.61,0,0,1,.5.07l.72.1a4.32,4.32,0,0,1,.64.07c.13,0,.26,0,.38,0a5.61,5.61,0,0,0,.59.06c.31,0,.61.06.93.06.17,0,.35,0,.53,0s.46,0,.69,0,.41,0,.62,0a2.41,2.41,0,0,0,.6,0,3,3,0,0,0,.31,0c.17,0,.35.05.54,0h.23c.4,0,.8,0,1.2,0,.22,0,.46,0,.69-.05a6.85,6.85,0,0,1,.91-.05.26.26,0,0,0,.23,0c.06-.05.12.12.16,0a3.4,3.4,0,0,0,.71-.05c.2,0,.4,0,.6-.08a.74.74,0,0,1,.21,0c.28,0,.56-.06.83-.1a4.63,4.63,0,0,0,.52-.07c.06,0,.11,0,.13.1.06.45.1.9.19,1.35,0,.23,0,.47.1.69a2.19,2.19,0,0,0,.12.49c0,.11,0,.26.06.39.1.3.13.62.22.92s.21.61.3.91a5.68,5.68,0,0,0,.32.81c.08.16.18.32.26.48a2.86,2.86,0,0,0,.22.47,3.57,3.57,0,0,1,.27.45c.13.27.38.43.49.7a.73.73,0,0,0,.21.26l.5.5a7.27,7.27,0,0,0,.79.66,2.43,2.43,0,0,1,.48.38c.09.12.07.18-.06.22-.38.11-.77.13-1.15.23s-.61.07-.9.14a6.85,6.85,0,0,1-1,.16,2.33,2.33,0,0,0-.37,0c-.2.06-.41.08-.61.12a3.27,3.27,0,0,1-.45,0c-.23,0-.45.06-.67.09a4,4,0,0,1-.6,0c-.07,0-.12.06-.21.06l-.57,0-.49,0c-.37,0-.73.1-1.09.09a2.83,2.83,0,0,0-.41,0h-.29c-.31,0-.61,0-.91,0l-.49,0h-2.51l-.33,0c-.33,0-.65,0-1,0a5.08,5.08,0,0,1-.67-.07,1.5,1.5,0,0,0-.3,0l-.4-.05c-.13,0-.25,0-.37,0a3.43,3.43,0,0,0-.56,0,2.11,2.11,0,0,1-.36,0c-.12,0-.24-.05-.37-.06s-.52-.1-.79-.1-.45-.05-.67-.05-.16,0-.25,0c-.24,0-.46-.1-.7-.11a4.67,4.67,0,0,1-.91-.15l-.24,0c-.15,0-.3-.07-.44-.07a1.44,1.44,0,0,1-.36-.07,3.07,3.07,0,0,0-.42-.07c-.28,0-.55-.14-.84-.16-.09,0-.12-.1-.05-.18a1.33,1.33,0,0,1,.47-.41,1.53,1.53,0,0,0,.41-.35,1.31,1.31,0,0,1,.28-.24h0c.08-.11.21-.18.28-.3a.44.44,0,0,1,.16-.17c.18-.12.26-.33.43-.48s.07-.12.11-.18.19-.22.27-.35.3-.49.43-.74a5.45,5.45,0,0,0,.25-.55c.07-.15.15-.3.23-.45l.12-.29c0-.15.1-.3.16-.44a2.19,2.19,0,0,0,.1-.34c.06-.23.17-.45.21-.69a1.32,1.32,0,0,0,.1-.51c0-.06,0-.08.06-.12.1-.29.07-.6.17-.89a5.69,5.69,0,0,0,.12-.7,7.22,7.22,0,0,1,.13-.79c0-.13,0-.28,0-.42S137.73,218.34,138,218.34Zm11.85,9c.1,0,.23,0,.36,0a.12.12,0,0,0,.15-.12c0-.18.07-.36.08-.53a6.31,6.31,0,0,1,.1-.76c0-.11,0-.23,0-.34s0-.05,0-.05,0,0,0,0,0,.34.07.51,0,.19,0,.29,0,.42,0,.62.09.27.31.25.12-.05.2,0,.18,0,.19-.1a2.93,2.93,0,0,0-.05-.84c0-.3-.07-.61-.11-.91s0-.39-.06-.59a2.19,2.19,0,0,1,0-.36c0-.21-.09-.28-.3-.27s-.25,0-.38,0a.78.78,0,0,0-.23.07c-.12,0-.15,0-.15.14a1.34,1.34,0,0,1-.05.35c-.06.26-.08.52-.12.77s0,.31-.08.44,0,.07-.06.06,0,0,0-.06a.35.35,0,0,0,0-.11,1.57,1.57,0,0,1-.16-.46,1,1,0,0,0-.19-.5v0c0-.14-.08-.26-.08-.41a.22.22,0,0,0-.19-.13c-.23,0-.45.05-.68,0s-.17.1-.2.23a1.53,1.53,0,0,0,0,.37,1.31,1.31,0,0,0,0,.28c0,.32.06.65.1,1s0,.68.05,1c0,.1,0,.19.14.2a1.59,1.59,0,0,0,.38,0s.09,0,.1-.07c0-.21,0-.42,0-.63s0-.27,0-.4,0-.27,0-.4,0-.1,0-.11.05.05.07.1.08.34.16.51a2.29,2.29,0,0,1,.1.23c0,.15.07.3.1.45S149.56,227.35,149.8,227.35Zm-7.06-6.51c0-.13-.07-.25-.07-.36s-.18-.32-.34-.4-.54-.07-.8-.14-.38,0-.57-.05c0,0,0,0,0,0a.43.43,0,0,0-.09.22c0,.18,0,.36,0,.55s-.06.42-.06.63c0,.52,0,1,0,1.55a.11.11,0,0,0,.12.11,2.34,2.34,0,0,1,.38,0,4.38,4.38,0,0,0,.51,0c.09,0,.21,0,.26,0s.27,0,.38-.1a1,1,0,0,0,.25-.26,1.18,1.18,0,0,0,.09-.38,1.16,1.16,0,0,0-.05-.49.35.35,0,0,0-.1-.19c-.18-.15-.19-.18,0-.35A.73.73,0,0,0,142.74,220.84Zm-3.2,4.09c.07-.14-.07-.24-.11-.37s-.31-.28-.5-.35a2.84,2.84,0,0,0-.42-.08.22.22,0,0,0-.11,0c-.13.06-.27.06-.39.12a.7.7,0,0,0-.38.36,3.18,3.18,0,0,0-.09.33.76.76,0,0,0,.19.59c.13.22.41.29.6.45a1.22,1.22,0,0,1,.37.38.26.26,0,0,1,0,.35c-.07.07-.15,0-.22.05s-.28-.09-.3-.16a1,1,0,0,1-.07-.24.13.13,0,0,0-.16-.15c-.08,0-.14,0-.21,0s-.14,0-.19-.05-.14,0-.14.12a1.22,1.22,0,0,0,0,.38c0,.07.1.12.1.19s.14.19.24.26.27.08.4.15a1.15,1.15,0,0,0,.41,0,1,1,0,0,0,.67-.2.77.77,0,0,0,.28-.53c0-.05,0-.08,0-.13a.38.38,0,0,0,0-.33,1.42,1.42,0,0,0-.59-.55.34.34,0,0,1-.24-.2.19.19,0,0,0-.13-.1c-.07,0-.1-.06-.14-.12a.27.27,0,0,1,0-.36.22.22,0,0,1,.29-.07.25.25,0,0,1,.17.28c0,.1,0,.15.12.17a1.1,1.1,0,0,1,.26.06C139.43,225.27,139.54,225.19,139.54,224.93Zm3.35,2.61a1.77,1.77,0,0,0,.49-.06.88.88,0,0,0,.54-.81,1.1,1.1,0,0,0-.06-.26c-.06-.14-.07-.3-.21-.38a1.81,1.81,0,0,1-.29-.19,2,2,0,0,0-.39-.24c-.07,0-.13-.11-.22-.11s-.17-.26-.13-.29,0-.17.06-.2a.38.38,0,0,1,.33,0,.26.26,0,0,1,.11.25c0,.14.06.16.16.16h.44c.06,0,.08,0,.09-.07a1.41,1.41,0,0,0,0-.41s0,0,0-.05-.11-.08-.13-.12c-.12-.21-.32-.24-.52-.3s-.26,0-.4,0a.68.68,0,0,0-.34.06.88.88,0,0,0-.41.44.39.39,0,0,0-.05.24c0,.13,0,.24.06.37a.81.81,0,0,0,.33.43,2.89,2.89,0,0,1,.8.54.34.34,0,0,1,0,.36.35.35,0,0,1-.61-.18c0-.09,0-.16-.15-.19s-.22,0-.31,0c-.05.1-.09,0-.15,0s-.17.23-.13.31a1.63,1.63,0,0,0,.33.53.91.91,0,0,0,.23.15A1.16,1.16,0,0,0,142.89,227.54Zm3.41-.59v.36a.22.22,0,0,0,.24.23c.33,0,.66,0,1,0a.49.49,0,0,0,.41-.13s.05,0,0,0,0-.15,0-.22-.06-.18-.22-.17l-.45,0c-.19,0-.22,0-.27-.19a2.64,2.64,0,0,0,0-.4c0-.16.07-.16.14-.16a5.44,5.44,0,0,1,.57,0c.08,0,.11,0,.13-.11a2.16,2.16,0,0,0,0-.36s0-.1-.11-.1-.43,0-.64,0a.11.11,0,0,1-.12-.11,2.48,2.48,0,0,0,0-.27c0-.08-.06-.24.11-.26a4.22,4.22,0,0,1,.49,0c.3,0,.31,0,.28-.29,0,0,0-.05,0-.08a.19.19,0,0,0-.18-.18l-.58,0-.67,0a.16.16,0,0,0-.15.09c-.05.11,0,.22,0,.33,0,.35,0,.71,0,1.06S146.29,226.63,146.3,227Zm-2-3.81h.26c.18,0,.25-.08.23-.26s0-.07,0-.12a.14.14,0,0,0-.14-.17c-.21,0-.42,0-.63,0s-.21-.09-.19-.19a2.81,2.81,0,0,0,0-.41c0-.11,0-.16.16-.16h.52c.18,0,.24,0,.26-.19a.57.57,0,0,0,0-.13.35.35,0,0,0-.06-.22c-.06.07-.12,0-.19,0a.67.67,0,0,1-.18,0,.71.71,0,0,0-.25,0c-.18,0-.24,0-.24-.23a1.38,1.38,0,0,0,0-.29c0-.13.06-.15.15-.15h.61a.14.14,0,0,0,.16-.11.48.48,0,0,0-.06-.37s0,0-.07,0h-.79a3.85,3.85,0,0,1-.48,0,.17.17,0,0,0-.19.17,2.09,2.09,0,0,1,0,.25c0,.31,0,.62,0,.93s0,.52,0,.77a1.94,1.94,0,0,1,0,.59c-.05.2,0,.3.15.34l.22,0C143.73,223.12,144,223.15,144.27,223.14Zm-3.53,4.32c.21,0,.2,0,.21-.19a.77.77,0,0,0,0-.15,1.84,1.84,0,0,0,0-.4.92.92,0,0,1,.15-.59c.15-.26.22-.55.36-.82s.22-.49.33-.73c0-.08,0-.11-.06-.12a.85.85,0,0,1-.23,0,.31.31,0,0,0-.38.15c0,.07,0,.16-.07.23a1.72,1.72,0,0,0-.19.44c0,.08-.08.19-.14.2s-.12-.11-.14-.18c-.08-.26-.15-.52-.21-.79a.19.19,0,0,0-.19-.16,1.61,1.61,0,0,0-.44,0s-.08-.07-.11,0,0,.12,0,.17l0,0c0,.15.09.28.1.42s.11.15.11.22a1.29,1.29,0,0,0,.14.51,4,4,0,0,1,.16.53,4.39,4.39,0,0,1,0,.81v.33s0,.1.08.09S140.61,227.48,140.74,227.46Zm4.34.13c.07-.06.15,0,.22-.06s0,0,0-.07a4.28,4.28,0,0,1,0-.8c0-.3,0-.6,0-.9a1.32,1.32,0,0,0,0-.28c0-.07.05-.11,0-.17s.07-.13.07-.21.09-.07.14,0,.22,0,.34,0,.15-.08.14-.12,0-.19,0-.28a.22.22,0,0,0-.1-.14c-.11-.08-.2,0-.3,0s-.42,0-.63,0a.22.22,0,0,0-.18,0c-.05-.09-.15,0-.21,0h-.49c-.09,0-.13,0-.13.12a.88.88,0,0,0,0,.23c0,.07-.07.19.06.22a1.09,1.09,0,0,0,.36,0c.19,0,.21,0,.26.19a.49.49,0,0,1,0,.17,2.66,2.66,0,0,1,0,.49,4.14,4.14,0,0,0,0,.61q0,.39,0,.78c0,.2,0,.2.2.26A1.07,1.07,0,0,0,145.08,227.59Zm.82-5a.38.38,0,0,0,0-.2c0-.11-.08-.2-.07-.32s0-.33,0-.49,0-.42,0-.62,0-.41,0-.62,0-.2-.06-.21a1.4,1.4,0,0,0-.5,0c-.1,0-.13,0-.13.15,0,.57,0,1.14,0,1.71a2.73,2.73,0,0,1,0,.4c0,.2,0,.41,0,.61,0,0,0,.14.05.15s.16.07.24,0a1.13,1.13,0,0,1,.41,0,.71.71,0,0,1,.29,0,2.44,2.44,0,0,0,.27,0c.18,0,.26-.05.27-.23s0-.12,0-.18,0-.15-.13-.15ZM148,223a2.64,2.64,0,0,0,.47,0c.05,0,.11,0,.09-.1a1.22,1.22,0,0,1,0-.27c0-.09-.09-.15-.15-.15a3.71,3.71,0,0,0-.47,0c-.08,0-.28-.08-.26-.14s0-.21,0-.31,0-.46,0-.69a2.13,2.13,0,0,0,0-.44c0-.1.05-.2,0-.29.09-.05,0-.16.05-.21a.45.45,0,0,1-.05-.3.12.12,0,0,0-.12-.1c-.15.05-.31,0-.47,0s-.09,0-.09.07-.06.28,0,.41,0,0,0,.08q0,.3,0,.6a3.42,3.42,0,0,1,0,.44c0,.29.06.58,0,.87,0,.12,0,.23,0,.34s0,.21.2.2Z"/><path d="M132.23,230.08a1.12,1.12,0,0,1,.13-.55c.07-.16.17-.3.24-.45s.06-.17.1-.25.12-.21.29-.19l.5.07c.16,0,.32.09.48.12a5.07,5.07,0,0,0,.68.11,1.14,1.14,0,0,1,.33.08,2,2,0,0,0,.42.06l.78.12c.18,0,.37.05.55.08l.45.07a2.24,2.24,0,0,0,.52.06,1.33,1.33,0,0,1,.4.05c.06,0,.1,0,.15,0,.24,0,.47.06.71.09s.45,0,.68.09h.26c.5,0,1,.08,1.52.1a2.66,2.66,0,0,0,.49,0,1.16,1.16,0,0,1,.31,0,4.83,4.83,0,0,0,.76,0c.18,0,.35,0,.53,0s.52,0,.79,0,.39,0,.59,0c.35,0,.71,0,1.06,0h.9l.77-.05.51,0,.51,0c.19,0,.37,0,.56,0a4.89,4.89,0,0,0,.85-.08,2.27,2.27,0,0,1,.45,0,4.81,4.81,0,0,0,.53-.07,5.54,5.54,0,0,0,.56-.05c.13,0,.27,0,.39,0a2.28,2.28,0,0,0,.52-.1.58.58,0,0,1,.19,0,4.14,4.14,0,0,0,.86-.12,3.41,3.41,0,0,1,.55,0c.11,0,.18-.07.27-.09.33-.06.66-.09,1-.16l.57-.13.27,0a.2.2,0,0,1,.23.15,4,4,0,0,0,.23.51,1.26,1.26,0,0,1,.15.5c0,.08.06.12.05.21a.87.87,0,0,1-.19.51.85.85,0,0,1-.47.24,3.85,3.85,0,0,0-.75.16,1.54,1.54,0,0,1-.3,0,3,3,0,0,0-.6.1,6.58,6.58,0,0,1-.89.13c-.12,0-.23.06-.35.07a6.76,6.76,0,0,1-.89.11c-.14,0-.25.07-.39.08s-.48.06-.72.07-.46.06-.69.07-.45,0-.67.08c-.48.07-1,0-1.44.09-.28,0-.58,0-.86.06s-.67,0-1,.06-.95,0-1.42,0-.74,0-1.11,0l-1.08,0h-.61a5.19,5.19,0,0,1-.56,0,4,4,0,0,0-.69-.06,3.29,3.29,0,0,1-.63,0c-.27-.06-.53,0-.79-.06s-.46,0-.69,0-.43-.05-.65-.08l-.42,0c-.23,0-.46,0-.68-.06l-.84-.12c-.24,0-.48-.06-.72-.11s-.44-.06-.66-.1l-.78-.14-.47-.08-.77-.15-.44-.14a.78.78,0,0,1-.28-.17A.43.43,0,0,1,132.23,230.08Z"/><path d="M138.14,216c.17.05.39,0,.6.08a5.29,5.29,0,0,0,.56,0c.12,0,.24.07.37.08h.12a6,6,0,0,1,.74.07c.27,0,.54,0,.81.09s.37,0,.56.05.51,0,.76,0l.45,0c.23,0,.46,0,.69,0a2.18,2.18,0,0,0,.51,0,.24.24,0,0,1,.2,0s.11,0,.15,0c.3,0,.59,0,.89,0s.64-.05,1,0,.59,0,.89,0,.58-.05.86-.06.56-.09.84-.08.43,0,.64-.06.57-.09.86-.11l.38-.05c.21,0,.28,0,.29.21s0,.4,0,.61a.65.65,0,0,0,.05.29c.06.08-.05.11,0,.18a.66.66,0,0,1,0,.25c0,.14-.1.22-.24.24a1.25,1.25,0,0,0-.42.08s-.14,0-.21,0a7.89,7.89,0,0,0-.85.09,9.17,9.17,0,0,1-1,.11c-.32,0-.65.06-1,.07-.16,0-.33,0-.48,0a2.67,2.67,0,0,1-.48,0c-.21,0-.43,0-.64,0a2.57,2.57,0,0,0-.48,0h-.36c-.2,0-.4,0-.61,0H144c-.16,0-.32,0-.48,0a5.79,5.79,0,0,1-.72,0l-.57,0-.62-.05-.57,0c-.23,0-.47,0-.7-.05a2.12,2.12,0,0,1-.57-.06c-.18,0-.37,0-.55-.08s-.32,0-.48,0-.55-.08-.82-.14-.11-.15-.1-.24a5.18,5.18,0,0,0,.08-1c0-.13,0-.25,0-.39S137.91,216,138.14,216Z"/><path d="M138,215.34a1.16,1.16,0,0,1,.07-.41.84.84,0,0,1,.45-.42c.12,0,.21-.15.35-.17a4,4,0,0,0,.75-.2h.12a1.8,1.8,0,0,0,.57-.1A4.62,4.62,0,0,0,141,214c.18,0,.19,0,.25.2s.15.16.32.14a3.21,3.21,0,0,1,.62,0,1.28,1.28,0,0,0,.27-.05c.16,0,.31,0,.47,0s.09.13.09.21.05.17.17.18.38,0,.57,0a2.78,2.78,0,0,0,.5,0c.11,0,.23,0,.34,0a4,4,0,0,1,.49,0c.25,0,.5,0,.75,0a.55.55,0,0,0,.22,0c.12,0,.07-.13.09-.19s.14-.17.28-.16.44,0,.66,0,.43,0,.64,0,.12,0,.14-.11,0-.24.17-.22.2,0,.29,0a3.4,3.4,0,0,0,.71.12,4.35,4.35,0,0,1,.71.18l.45.1a1.5,1.5,0,0,1,.9.57.88.88,0,0,1,.09.43c0,.07-.1.11-.12.11-.21-.06-.41.05-.61.07s-.41.08-.63.08a6.54,6.54,0,0,0-.89.09,8.46,8.46,0,0,1-.88.08l-.9.05-.82,0c-.3,0-.6,0-.89,0s-.5,0-.75,0a.63.63,0,0,1-.3,0,.74.74,0,0,0-.36,0c-.05,0-.09,0-.15,0-.28,0-.55-.05-.82,0a8.51,8.51,0,0,1-.88,0c-.35,0-.69,0-1-.07-.16,0-.32,0-.47,0s-.33-.05-.49-.07l-.46,0c-.19,0-.36-.06-.55-.07s-.46-.08-.69-.1a2,2,0,0,1-.35,0A.15.15,0,0,1,138,215.34Z"/><path d="M144.58,235h-.8c-.16,0-.22-.07-.15-.22a.88.88,0,0,0,.06-.27c0-.11-.12-.16-.2-.24a.8.8,0,0,1-.22-.32c-.05-.14-.12-.28-.16-.43a2,2,0,0,1-.05-.42,2.83,2.83,0,0,1,0-.65c0-.09,0-.11.12-.11s.38,0,.56,0a1.85,1.85,0,0,0,.47,0,1.48,1.48,0,0,1,.21,0h.78c.14,0,.28,0,.43,0a2.17,2.17,0,0,1,.36,0c.08,0,.13,0,.13.12a4.79,4.79,0,0,1,0,.76,3.64,3.64,0,0,1-.14.47,2.65,2.65,0,0,1-.23.48.32.32,0,0,1-.11.12c-.15.09-.14.22-.12.36s0,0,0,0c.06.24,0,.29-.23.29Z"/><path d="M144.54,214.16h-.62c-.19,0-.23,0-.22-.24s0-.42,0-.64a2.17,2.17,0,0,1,0-.36c0-.23,0-.46,0-.69s0-.38,0-.57a5.48,5.48,0,0,1,0-.7.49.49,0,0,0,0-.17,1.6,1.6,0,0,1,0-.31c0-.27,0-.27.3-.27l.89,0h.2c.12,0,.15.05.16.15.05.57,0,1.14,0,1.72,0,.21.05.42,0,.63s0,.32,0,.48a6.26,6.26,0,0,0,0,.75c0,.14,0,.2-.15.2Z"/><path d="M146.07,210.29a3,3,0,0,1,.72.1,2.31,2.31,0,0,1,.77.29,1.28,1.28,0,0,1,.52.58,1.15,1.15,0,0,1,.07.63,5.2,5.2,0,0,1-.29.78,2.44,2.44,0,0,0-.29,1,1.05,1.05,0,0,1,0,.19.17.17,0,0,1-.2.11,6.83,6.83,0,0,0-.79-.06h-.19q-.18,0-.12-.27c.05-.2.07-.4.1-.59a1.3,1.3,0,0,1,.11-.43c0-.09,0-.18,0-.27s-.15-.32-.32-.3-.15,0-.23-.05a.1.1,0,0,1-.09-.12,2.54,2.54,0,0,0,0-.55,2.79,2.79,0,0,0,0-.58c0-.12.06-.23,0-.35s0-.05.08-.05Z"/><path d="M143.36,210.48c0,.21,0,.42,0,.62a4.29,4.29,0,0,1,0,.72.19.19,0,0,1-.19.16c-.11,0-.45.18-.45.29a.6.6,0,0,0,0,.37.78.78,0,0,1,0,.23,2.12,2.12,0,0,1,.11.62.34.34,0,0,0,0,.24s0,.05-.07.08a.78.78,0,0,1-.26,0l-.34,0a2,2,0,0,0-.34,0c-.19,0-.23,0-.28-.22s0-.57-.22-.81c0,0,0-.13,0-.19a2.43,2.43,0,0,0-.18-.32,1.54,1.54,0,0,1-.19-.63,1.51,1.51,0,0,1,.2-.62c.16-.37.49-.47.82-.61.1,0,.22-.07.32-.11a1.36,1.36,0,0,1,.41-.08,1.85,1.85,0,0,0,.47,0C143.3,210.25,143.36,210.33,143.36,210.48Z"/><path d="M141.59,222.49c-.16,0-.25-.11-.19-.25a1,1,0,0,0,0-.35.17.17,0,0,1,.19-.16l.24,0c.15,0,.18.12.2.24a.34.34,0,0,1-.2.43A.58.58,0,0,1,141.59,222.49Z"/><path d="M142.07,220.85a.33.33,0,0,1-.37.32c-.08,0-.2.05-.24-.1s0-.06,0-.09a2,2,0,0,1,.06-.42s0-.05,0-.06a.67.67,0,0,1,.37.05A.28.28,0,0,1,142.07,220.85Z"/></svg>